ISO-10303-21;
HEADER;
/* Generated by software containing ST-Developer
 * from STEP Tools, Inc. (www.steptools.com) 
 */

FILE_DESCRIPTION(
/* description */ ('',
'CAx-IF Rec.Pracs.---Representation and Presentation of Product Manufa
cturing Information (PMI)---4.0---2014-10-13'),
/* implementation_level */ '2;1');

FILE_NAME(
/* name */ '400x400x8mm.stp',
/* time_stamp */ '2025-12-15T13:51:26+01:00',
/* author */ ('Usuario'),
/* organization */ (''),
/* preprocessor_version */ 'ST-DEVELOPER v20',
/* originating_system */ 'Autodesk Inventor 2025',
/* authorisation */ '');

FILE_SCHEMA (('AP242_MANAGED_MODEL_BASED_3D_ENGINEERING_MIM_LF { 1 0 10303 442 1 1 4 }'));
ENDSEC;

DATA;
#10=MECHANICAL_DESIGN_AND_DRAUGHTING_RELATIONSHIP('Isom\X\E9trica','',#25,
#26);
#11=MECHANICAL_DESIGN_AND_DRAUGHTING_RELATIONSHIP('Frontal','',#27,#26);
#12=MECHANICAL_DESIGN_AND_DRAUGHTING_RELATIONSHIP('Superior','',#28,#26);
#13=MECHANICAL_DESIGN_AND_DRAUGHTING_RELATIONSHIP('Derecha','',#29,#26);
#14=MAPPED_ITEM('',#19,#577);
#15=MAPPED_ITEM('',#20,#578);
#16=MAPPED_ITEM('',#21,#579);
#17=MAPPED_ITEM('',#22,#580);
#18=MAPPED_ITEM('',#23,#581);
#19=REPRESENTATION_MAP(#577,#24);
#20=REPRESENTATION_MAP(#578,#902);
#21=REPRESENTATION_MAP(#579,#24);
#22=REPRESENTATION_MAP(#580,#24);
#23=REPRESENTATION_MAP(#581,#24);
#24=ADVANCED_BREP_SHAPE_REPRESENTATION('Isom\X\E9trica',(#45),#894);
#25=DRAUGHTING_MODEL('Isom\X\E9trica',(#14,#31),#894);
#26=DRAUGHTING_MODEL('',(#15,#578),#894);
#27=DRAUGHTING_MODEL('Frontal',(#16,#32),#894);
#28=DRAUGHTING_MODEL('Superior',(#17,#33),#894);
#29=DRAUGHTING_MODEL('Derecha',(#18,#34),#894);
#30=MECHANICAL_DESIGN_GEOMETRIC_PRESENTATION_REPRESENTATION('',(#43),#895);
#31=CAMERA_MODEL_D3('Isom\X\E9trica',#569,#35);
#32=CAMERA_MODEL_D3('Frontal',#571,#36);
#33=CAMERA_MODEL_D3('Superior',#573,#37);
#34=CAMERA_MODEL_D3('Derecha',#575,#38);
#35=VIEW_VOLUME(.PARALLEL.,#877,16.9875424688562,0.,.F.,0.,.F.,.F.,#39);
#36=VIEW_VOLUME(.PARALLEL.,#880,117.693146607172,0.,.F.,0.,.F.,.F.,#40);
#37=VIEW_VOLUME(.PARALLEL.,#883,117.693146607172,0.,.F.,0.,.F.,.F.,#41);
#38=VIEW_VOLUME(.PARALLEL.,#886,117.693146607172,0.,.F.,0.,.F.,.F.,#42);
#39=PLANAR_BOX('view window',27.8110236220472,20.,#570);
#40=PLANAR_BOX('view window',27.8110236220472,20.,#572);
#41=PLANAR_BOX('view window',27.8110236220472,20.,#574);
#42=PLANAR_BOX('view window',27.8110236220472,20.,#576);
#43=STYLED_ITEM('',(#912),#45);
#44=STYLED_ITEM('',(#913),#15);
#45=MANIFOLD_SOLID_BREP('S\X\F3lido1',#491);
#46=CONICAL_SURFACE('',#547,2.925,0.785398163397448);
#47=CONICAL_SURFACE('',#551,2.925,0.785398163397448);
#48=CONICAL_SURFACE('',#555,2.925,0.785398163397448);
#49=CONICAL_SURFACE('',#559,2.925,0.785398163397448);
#50=CONICAL_SURFACE('',#563,2.925,0.785398163397448);
#51=FACE_BOUND('',#106,.T.);
#52=FACE_BOUND('',#107,.T.);
#53=FACE_BOUND('',#108,.T.);
#54=FACE_BOUND('',#109,.T.);
#55=FACE_BOUND('',#110,.T.);
#56=FACE_BOUND('',#111,.T.);
#57=FACE_BOUND('',#112,.T.);
#58=FACE_BOUND('',#113,.T.);
#59=FACE_BOUND('',#114,.T.);
#60=FACE_BOUND('',#132,.T.);
#61=FACE_BOUND('',#133,.T.);
#62=FACE_BOUND('',#134,.T.);
#63=FACE_BOUND('',#135,.T.);
#64=FACE_BOUND('',#136,.T.);
#65=FACE_BOUND('',#137,.T.);
#66=FACE_BOUND('',#138,.T.);
#67=FACE_BOUND('',#139,.T.);
#68=FACE_BOUND('',#140,.T.);
#69=PLANE('',#529);
#70=PLANE('',#530);
#71=PLANE('',#541);
#72=PLANE('',#544);
#73=PLANE('',#567);
#74=PLANE('',#568);
#75=FACE_OUTER_BOUND('',#99,.T.);
#76=FACE_OUTER_BOUND('',#100,.T.);
#77=FACE_OUTER_BOUND('',#101,.T.);
#78=FACE_OUTER_BOUND('',#102,.T.);
#79=FACE_OUTER_BOUND('',#103,.T.);
#80=FACE_OUTER_BOUND('',#104,.T.);
#81=FACE_OUTER_BOUND('',#105,.T.);
#82=FACE_OUTER_BOUND('',#115,.T.);
#83=FACE_OUTER_BOUND('',#116,.T.);
#84=FACE_OUTER_BOUND('',#117,.T.);
#85=FACE_OUTER_BOUND('',#118,.T.);
#86=FACE_OUTER_BOUND('',#119,.T.);
#87=FACE_OUTER_BOUND('',#120,.T.);
#88=FACE_OUTER_BOUND('',#121,.T.);
#89=FACE_OUTER_BOUND('',#122,.T.);
#90=FACE_OUTER_BOUND('',#123,.T.);
#91=FACE_OUTER_BOUND('',#124,.T.);
#92=FACE_OUTER_BOUND('',#125,.T.);
#93=FACE_OUTER_BOUND('',#126,.T.);
#94=FACE_OUTER_BOUND('',#127,.T.);
#95=FACE_OUTER_BOUND('',#128,.T.);
#96=FACE_OUTER_BOUND('',#129,.T.);
#97=FACE_OUTER_BOUND('',#130,.T.);
#98=FACE_OUTER_BOUND('',#131,.T.);
#99=EDGE_LOOP('',(#332,#333,#334,#335));
#100=EDGE_LOOP('',(#336,#337,#338,#339));
#101=EDGE_LOOP('',(#340,#341,#342,#343));
#102=EDGE_LOOP('',(#344,#345,#346,#347));
#103=EDGE_LOOP('',(#348,#349,#350,#351));
#104=EDGE_LOOP('',(#352,#353,#354,#355));
#105=EDGE_LOOP('',(#356,#357,#358,#359,#360,#361,#362,#363));
#106=EDGE_LOOP('',(#364));
#107=EDGE_LOOP('',(#365));
#108=EDGE_LOOP('',(#366));
#109=EDGE_LOOP('',(#367));
#110=EDGE_LOOP('',(#368));
#111=EDGE_LOOP('',(#369));
#112=EDGE_LOOP('',(#370));
#113=EDGE_LOOP('',(#371));
#114=EDGE_LOOP('',(#372));
#115=EDGE_LOOP('',(#373,#374,#375,#376));
#116=EDGE_LOOP('',(#377,#378,#379,#380));
#117=EDGE_LOOP('',(#381,#382,#383,#384));
#118=EDGE_LOOP('',(#385,#386,#387,#388));
#119=EDGE_LOOP('',(#389,#390,#391,#392));
#120=EDGE_LOOP('',(#393,#394,#395,#396));
#121=EDGE_LOOP('',(#397,#398,#399,#400));
#122=EDGE_LOOP('',(#401,#402,#403,#404));
#123=EDGE_LOOP('',(#405,#406,#407,#408));
#124=EDGE_LOOP('',(#409,#410,#411,#412));
#125=EDGE_LOOP('',(#413,#414,#415,#416));
#126=EDGE_LOOP('',(#417,#418,#419,#420));
#127=EDGE_LOOP('',(#421,#422,#423,#424));
#128=EDGE_LOOP('',(#425,#426,#427,#428));
#129=EDGE_LOOP('',(#429,#430,#431,#432));
#130=EDGE_LOOP('',(#433,#434,#435,#436));
#131=EDGE_LOOP('',(#437,#438,#439,#440,#441,#442,#443,#444));
#132=EDGE_LOOP('',(#445));
#133=EDGE_LOOP('',(#446));
#134=EDGE_LOOP('',(#447));
#135=EDGE_LOOP('',(#448));
#136=EDGE_LOOP('',(#449));
#137=EDGE_LOOP('',(#450));
#138=EDGE_LOOP('',(#451));
#139=EDGE_LOOP('',(#452));
#140=EDGE_LOOP('',(#453));
#141=LINE('',#755,#171);
#142=LINE('',#761,#172);
#143=LINE('',#767,#173);
#144=LINE('',#773,#174);
#145=LINE('',#780,#175);
#146=LINE('',#783,#176);
#147=LINE('',#786,#177);
#148=LINE('',#788,#178);
#149=LINE('',#789,#179);
#150=LINE('',#792,#180);
#151=LINE('',#796,#181);
#152=LINE('',#800,#182);
#153=LINE('',#814,#183);
#154=LINE('',#818,#184);
#155=LINE('',#819,#185);
#156=LINE('',#822,#186);
#157=LINE('',#826,#187);
#158=LINE('',#827,#188);
#159=LINE('',#830,#189);
#160=LINE('',#836,#190);
#161=LINE('',#839,#191);
#162=LINE('',#844,#192);
#163=LINE('',#847,#193);
#164=LINE('',#852,#194);
#165=LINE('',#855,#195);
#166=LINE('',#860,#196);
#167=LINE('',#863,#197);
#168=LINE('',#868,#198);
#169=LINE('',#871,#199);
#170=LINE('',#873,#200);
#171=VECTOR('',#588,1.2295);
#172=VECTOR('',#595,1.2295);
#173=VECTOR('',#602,1.2295);
#174=VECTOR('',#609,1.2295);
#175=VECTOR('',#616,10.);
#176=VECTOR('',#619,10.);
#177=VECTOR('',#622,10.);
#178=VECTOR('',#623,10.);
#179=VECTOR('',#624,10.);
#180=VECTOR('',#627,10.);
#181=VECTOR('',#630,10.);
#182=VECTOR('',#633,10.);
#183=VECTOR('',#648,10.);
#184=VECTOR('',#653,10.);
#185=VECTOR('',#654,10.);
#186=VECTOR('',#657,10.);
#187=VECTOR('',#662,10.);
#188=VECTOR('',#663,10.);
#189=VECTOR('',#666,10.);
#190=VECTOR('',#673,2.925);
#191=VECTOR('',#678,2.1);
#192=VECTOR('',#683,2.925);
#193=VECTOR('',#688,2.1);
#194=VECTOR('',#693,2.925);
#195=VECTOR('',#698,2.1);
#196=VECTOR('',#703,2.925);
#197=VECTOR('',#708,2.1);
#198=VECTOR('',#713,2.925);
#199=VECTOR('',#718,2.1);
#200=VECTOR('',#721,10.);
#201=CIRCLE('',#515,1.2295);
#202=CIRCLE('',#516,1.2295);
#203=CIRCLE('',#518,1.2295);
#204=CIRCLE('',#519,1.2295);
#205=CIRCLE('',#521,1.2295);
#206=CIRCLE('',#522,1.2295);
#207=CIRCLE('',#524,1.2295);
#208=CIRCLE('',#525,1.2295);
#209=CIRCLE('',#527,2.);
#210=CIRCLE('',#528,2.);
#211=CIRCLE('',#531,2.);
#212=CIRCLE('',#532,2.);
#213=CIRCLE('',#533,2.);
#214=CIRCLE('',#534,2.1);
#215=CIRCLE('',#535,2.1);
#216=CIRCLE('',#536,2.1);
#217=CIRCLE('',#537,2.1);
#218=CIRCLE('',#538,2.1);
#219=CIRCLE('',#540,2.);
#220=CIRCLE('',#543,2.);
#221=CIRCLE('',#546,2.);
#222=CIRCLE('',#548,3.75);
#223=CIRCLE('',#549,2.1);
#224=CIRCLE('',#552,3.75);
#225=CIRCLE('',#553,2.1);
#226=CIRCLE('',#556,3.75);
#227=CIRCLE('',#557,2.1);
#228=CIRCLE('',#560,3.75);
#229=CIRCLE('',#561,2.1);
#230=CIRCLE('',#564,3.75);
#231=CIRCLE('',#565,2.1);
#232=VERTEX_POINT('',#752);
#233=VERTEX_POINT('',#754);
#234=VERTEX_POINT('',#758);
#235=VERTEX_POINT('',#760);
#236=VERTEX_POINT('',#764);
#237=VERTEX_POINT('',#766);
#238=VERTEX_POINT('',#770);
#239=VERTEX_POINT('',#772);
#240=VERTEX_POINT('',#776);
#241=VERTEX_POINT('',#777);
#242=VERTEX_POINT('',#779);
#243=VERTEX_POINT('',#781);
#244=VERTEX_POINT('',#785);
#245=VERTEX_POINT('',#787);
#246=VERTEX_POINT('',#791);
#247=VERTEX_POINT('',#793);
#248=VERTEX_POINT('',#795);
#249=VERTEX_POINT('',#797);
#250=VERTEX_POINT('',#799);
#251=VERTEX_POINT('',#802);
#252=VERTEX_POINT('',#804);
#253=VERTEX_POINT('',#806);
#254=VERTEX_POINT('',#808);
#255=VERTEX_POINT('',#810);
#256=VERTEX_POINT('',#813);
#257=VERTEX_POINT('',#817);
#258=VERTEX_POINT('',#821);
#259=VERTEX_POINT('',#825);
#260=VERTEX_POINT('',#829);
#261=VERTEX_POINT('',#833);
#262=VERTEX_POINT('',#835);
#263=VERTEX_POINT('',#841);
#264=VERTEX_POINT('',#843);
#265=VERTEX_POINT('',#849);
#266=VERTEX_POINT('',#851);
#267=VERTEX_POINT('',#857);
#268=VERTEX_POINT('',#859);
#269=VERTEX_POINT('',#865);
#270=VERTEX_POINT('',#867);
#271=EDGE_CURVE('',#232,#232,#201,.T.);
#272=EDGE_CURVE('',#232,#233,#141,.T.);
#273=EDGE_CURVE('',#233,#233,#202,.T.);
#274=EDGE_CURVE('',#234,#234,#203,.T.);
#275=EDGE_CURVE('',#234,#235,#142,.T.);
#276=EDGE_CURVE('',#235,#235,#204,.T.);
#277=EDGE_CURVE('',#236,#236,#205,.T.);
#278=EDGE_CURVE('',#236,#237,#143,.T.);
#279=EDGE_CURVE('',#237,#237,#206,.T.);
#280=EDGE_CURVE('',#238,#238,#207,.T.);
#281=EDGE_CURVE('',#238,#239,#144,.T.);
#282=EDGE_CURVE('',#239,#239,#208,.T.);
#283=EDGE_CURVE('',#240,#241,#209,.T.);
#284=EDGE_CURVE('',#241,#242,#145,.T.);
#285=EDGE_CURVE('',#242,#243,#210,.T.);
#286=EDGE_CURVE('',#243,#240,#146,.T.);
#287=EDGE_CURVE('',#244,#241,#147,.T.);
#288=EDGE_CURVE('',#245,#244,#148,.T.);
#289=EDGE_CURVE('',#242,#245,#149,.T.);
#290=EDGE_CURVE('',#240,#246,#150,.T.);
#291=EDGE_CURVE('',#247,#246,#211,.T.);
#292=EDGE_CURVE('',#247,#248,#151,.T.);
#293=EDGE_CURVE('',#249,#248,#212,.T.);
#294=EDGE_CURVE('',#249,#250,#152,.T.);
#295=EDGE_CURVE('',#244,#250,#213,.T.);
#296=EDGE_CURVE('',#251,#251,#214,.T.);
#297=EDGE_CURVE('',#252,#252,#215,.T.);
#298=EDGE_CURVE('',#253,#253,#216,.T.);
#299=EDGE_CURVE('',#254,#254,#217,.T.);
#300=EDGE_CURVE('',#255,#255,#218,.T.);
#301=EDGE_CURVE('',#250,#256,#153,.T.);
#302=EDGE_CURVE('',#256,#245,#219,.T.);
#303=EDGE_CURVE('',#257,#249,#154,.T.);
#304=EDGE_CURVE('',#256,#257,#155,.T.);
#305=EDGE_CURVE('',#248,#258,#156,.T.);
#306=EDGE_CURVE('',#258,#257,#220,.T.);
#307=EDGE_CURVE('',#259,#247,#157,.T.);
#308=EDGE_CURVE('',#258,#259,#158,.T.);
#309=EDGE_CURVE('',#246,#260,#159,.T.);
#310=EDGE_CURVE('',#260,#259,#221,.T.);
#311=EDGE_CURVE('',#261,#261,#222,.T.);
#312=EDGE_CURVE('',#261,#262,#160,.T.);
#313=EDGE_CURVE('',#262,#262,#223,.T.);
#314=EDGE_CURVE('',#262,#251,#161,.T.);
#315=EDGE_CURVE('',#263,#263,#224,.T.);
#316=EDGE_CURVE('',#263,#264,#162,.T.);
#317=EDGE_CURVE('',#264,#264,#225,.T.);
#318=EDGE_CURVE('',#264,#252,#163,.T.);
#319=EDGE_CURVE('',#265,#265,#226,.T.);
#320=EDGE_CURVE('',#265,#266,#164,.T.);
#321=EDGE_CURVE('',#266,#266,#227,.T.);
#322=EDGE_CURVE('',#266,#253,#165,.T.);
#323=EDGE_CURVE('',#267,#267,#228,.T.);
#324=EDGE_CURVE('',#267,#268,#166,.T.);
#325=EDGE_CURVE('',#268,#268,#229,.T.);
#326=EDGE_CURVE('',#268,#254,#167,.T.);
#327=EDGE_CURVE('',#269,#269,#230,.T.);
#328=EDGE_CURVE('',#269,#270,#168,.T.);
#329=EDGE_CURVE('',#270,#270,#231,.T.);
#330=EDGE_CURVE('',#270,#255,#169,.T.);
#331=EDGE_CURVE('',#260,#243,#170,.T.);
#332=ORIENTED_EDGE('',*,*,#271,.F.);
#333=ORIENTED_EDGE('',*,*,#272,.T.);
#334=ORIENTED_EDGE('',*,*,#273,.F.);
#335=ORIENTED_EDGE('',*,*,#272,.F.);
#336=ORIENTED_EDGE('',*,*,#274,.F.);
#337=ORIENTED_EDGE('',*,*,#275,.T.);
#338=ORIENTED_EDGE('',*,*,#276,.F.);
#339=ORIENTED_EDGE('',*,*,#275,.F.);
#340=ORIENTED_EDGE('',*,*,#277,.F.);
#341=ORIENTED_EDGE('',*,*,#278,.T.);
#342=ORIENTED_EDGE('',*,*,#279,.F.);
#343=ORIENTED_EDGE('',*,*,#278,.F.);
#344=ORIENTED_EDGE('',*,*,#280,.F.);
#345=ORIENTED_EDGE('',*,*,#281,.T.);
#346=ORIENTED_EDGE('',*,*,#282,.F.);
#347=ORIENTED_EDGE('',*,*,#281,.F.);
#348=ORIENTED_EDGE('',*,*,#283,.T.);
#349=ORIENTED_EDGE('',*,*,#284,.T.);
#350=ORIENTED_EDGE('',*,*,#285,.T.);
#351=ORIENTED_EDGE('',*,*,#286,.T.);
#352=ORIENTED_EDGE('',*,*,#284,.F.);
#353=ORIENTED_EDGE('',*,*,#287,.F.);
#354=ORIENTED_EDGE('',*,*,#288,.F.);
#355=ORIENTED_EDGE('',*,*,#289,.F.);
#356=ORIENTED_EDGE('',*,*,#283,.F.);
#357=ORIENTED_EDGE('',*,*,#290,.T.);
#358=ORIENTED_EDGE('',*,*,#291,.F.);
#359=ORIENTED_EDGE('',*,*,#292,.T.);
#360=ORIENTED_EDGE('',*,*,#293,.F.);
#361=ORIENTED_EDGE('',*,*,#294,.T.);
#362=ORIENTED_EDGE('',*,*,#295,.F.);
#363=ORIENTED_EDGE('',*,*,#287,.T.);
#364=ORIENTED_EDGE('',*,*,#273,.T.);
#365=ORIENTED_EDGE('',*,*,#276,.T.);
#366=ORIENTED_EDGE('',*,*,#279,.T.);
#367=ORIENTED_EDGE('',*,*,#282,.T.);
#368=ORIENTED_EDGE('',*,*,#296,.T.);
#369=ORIENTED_EDGE('',*,*,#297,.T.);
#370=ORIENTED_EDGE('',*,*,#298,.T.);
#371=ORIENTED_EDGE('',*,*,#299,.T.);
#372=ORIENTED_EDGE('',*,*,#300,.T.);
#373=ORIENTED_EDGE('',*,*,#295,.T.);
#374=ORIENTED_EDGE('',*,*,#301,.T.);
#375=ORIENTED_EDGE('',*,*,#302,.T.);
#376=ORIENTED_EDGE('',*,*,#288,.T.);
#377=ORIENTED_EDGE('',*,*,#301,.F.);
#378=ORIENTED_EDGE('',*,*,#294,.F.);
#379=ORIENTED_EDGE('',*,*,#303,.F.);
#380=ORIENTED_EDGE('',*,*,#304,.F.);
#381=ORIENTED_EDGE('',*,*,#293,.T.);
#382=ORIENTED_EDGE('',*,*,#305,.T.);
#383=ORIENTED_EDGE('',*,*,#306,.T.);
#384=ORIENTED_EDGE('',*,*,#303,.T.);
#385=ORIENTED_EDGE('',*,*,#305,.F.);
#386=ORIENTED_EDGE('',*,*,#292,.F.);
#387=ORIENTED_EDGE('',*,*,#307,.F.);
#388=ORIENTED_EDGE('',*,*,#308,.F.);
#389=ORIENTED_EDGE('',*,*,#291,.T.);
#390=ORIENTED_EDGE('',*,*,#309,.T.);
#391=ORIENTED_EDGE('',*,*,#310,.T.);
#392=ORIENTED_EDGE('',*,*,#307,.T.);
#393=ORIENTED_EDGE('',*,*,#311,.F.);
#394=ORIENTED_EDGE('',*,*,#312,.T.);
#395=ORIENTED_EDGE('',*,*,#313,.F.);
#396=ORIENTED_EDGE('',*,*,#312,.F.);
#397=ORIENTED_EDGE('',*,*,#313,.T.);
#398=ORIENTED_EDGE('',*,*,#314,.T.);
#399=ORIENTED_EDGE('',*,*,#296,.F.);
#400=ORIENTED_EDGE('',*,*,#314,.F.);
#401=ORIENTED_EDGE('',*,*,#315,.F.);
#402=ORIENTED_EDGE('',*,*,#316,.T.);
#403=ORIENTED_EDGE('',*,*,#317,.F.);
#404=ORIENTED_EDGE('',*,*,#316,.F.);
#405=ORIENTED_EDGE('',*,*,#317,.T.);
#406=ORIENTED_EDGE('',*,*,#318,.T.);
#407=ORIENTED_EDGE('',*,*,#297,.F.);
#408=ORIENTED_EDGE('',*,*,#318,.F.);
#409=ORIENTED_EDGE('',*,*,#319,.F.);
#410=ORIENTED_EDGE('',*,*,#320,.T.);
#411=ORIENTED_EDGE('',*,*,#321,.F.);
#412=ORIENTED_EDGE('',*,*,#320,.F.);
#413=ORIENTED_EDGE('',*,*,#321,.T.);
#414=ORIENTED_EDGE('',*,*,#322,.T.);
#415=ORIENTED_EDGE('',*,*,#298,.F.);
#416=ORIENTED_EDGE('',*,*,#322,.F.);
#417=ORIENTED_EDGE('',*,*,#323,.F.);
#418=ORIENTED_EDGE('',*,*,#324,.T.);
#419=ORIENTED_EDGE('',*,*,#325,.F.);
#420=ORIENTED_EDGE('',*,*,#324,.F.);
#421=ORIENTED_EDGE('',*,*,#325,.T.);
#422=ORIENTED_EDGE('',*,*,#326,.T.);
#423=ORIENTED_EDGE('',*,*,#299,.F.);
#424=ORIENTED_EDGE('',*,*,#326,.F.);
#425=ORIENTED_EDGE('',*,*,#327,.F.);
#426=ORIENTED_EDGE('',*,*,#328,.T.);
#427=ORIENTED_EDGE('',*,*,#329,.F.);
#428=ORIENTED_EDGE('',*,*,#328,.F.);
#429=ORIENTED_EDGE('',*,*,#329,.T.);
#430=ORIENTED_EDGE('',*,*,#330,.T.);
#431=ORIENTED_EDGE('',*,*,#300,.F.);
#432=ORIENTED_EDGE('',*,*,#330,.F.);
#433=ORIENTED_EDGE('',*,*,#286,.F.);
#434=ORIENTED_EDGE('',*,*,#331,.F.);
#435=ORIENTED_EDGE('',*,*,#309,.F.);
#436=ORIENTED_EDGE('',*,*,#290,.F.);
#437=ORIENTED_EDGE('',*,*,#285,.F.);
#438=ORIENTED_EDGE('',*,*,#289,.T.);
#439=ORIENTED_EDGE('',*,*,#302,.F.);
#440=ORIENTED_EDGE('',*,*,#304,.T.);
#441=ORIENTED_EDGE('',*,*,#306,.F.);
#442=ORIENTED_EDGE('',*,*,#308,.T.);
#443=ORIENTED_EDGE('',*,*,#310,.F.);
#444=ORIENTED_EDGE('',*,*,#331,.T.);
#445=ORIENTED_EDGE('',*,*,#271,.T.);
#446=ORIENTED_EDGE('',*,*,#274,.T.);
#447=ORIENTED_EDGE('',*,*,#277,.T.);
#448=ORIENTED_EDGE('',*,*,#280,.T.);
#449=ORIENTED_EDGE('',*,*,#311,.T.);
#450=ORIENTED_EDGE('',*,*,#315,.T.);
#451=ORIENTED_EDGE('',*,*,#319,.T.);
#452=ORIENTED_EDGE('',*,*,#323,.T.);
#453=ORIENTED_EDGE('',*,*,#327,.T.);
#454=CYLINDRICAL_SURFACE('',#514,1.2295);
#455=CYLINDRICAL_SURFACE('',#517,1.2295);
#456=CYLINDRICAL_SURFACE('',#520,1.2295);
#457=CYLINDRICAL_SURFACE('',#523,1.2295);
#458=CYLINDRICAL_SURFACE('',#526,2.);
#459=CYLINDRICAL_SURFACE('',#539,2.);
#460=CYLINDRICAL_SURFACE('',#542,2.);
#461=CYLINDRICAL_SURFACE('',#545,2.);
#462=CYLINDRICAL_SURFACE('',#550,2.1);
#463=CYLINDRICAL_SURFACE('',#554,2.1);
#464=CYLINDRICAL_SURFACE('',#558,2.1);
#465=CYLINDRICAL_SURFACE('',#562,2.1);
#466=CYLINDRICAL_SURFACE('',#566,2.1);
#467=ADVANCED_FACE('',(#75),#454,.F.);
#468=ADVANCED_FACE('',(#76),#455,.F.);
#469=ADVANCED_FACE('',(#77),#456,.F.);
#470=ADVANCED_FACE('',(#78),#457,.F.);
#471=ADVANCED_FACE('',(#79),#458,.T.);
#472=ADVANCED_FACE('',(#80),#69,.T.);
#473=ADVANCED_FACE('',(#81,#51,#52,#53,#54,#55,#56,#57,#58,#59),#70,.T.);
#474=ADVANCED_FACE('',(#82),#459,.T.);
#475=ADVANCED_FACE('',(#83),#71,.T.);
#476=ADVANCED_FACE('',(#84),#460,.T.);
#477=ADVANCED_FACE('',(#85),#72,.T.);
#478=ADVANCED_FACE('',(#86),#461,.T.);
#479=ADVANCED_FACE('',(#87),#46,.F.);
#480=ADVANCED_FACE('',(#88),#462,.F.);
#481=ADVANCED_FACE('',(#89),#47,.F.);
#482=ADVANCED_FACE('',(#90),#463,.F.);
#483=ADVANCED_FACE('',(#91),#48,.F.);
#484=ADVANCED_FACE('',(#92),#464,.F.);
#485=ADVANCED_FACE('',(#93),#49,.F.);
#486=ADVANCED_FACE('',(#94),#465,.F.);
#487=ADVANCED_FACE('',(#95),#50,.F.);
#488=ADVANCED_FACE('',(#96),#466,.F.);
#489=ADVANCED_FACE('',(#97),#73,.T.);
#490=ADVANCED_FACE('',(#98,#60,#61,#62,#63,#64,#65,#66,#67,#68),#74,.T.);
#491=CLOSED_SHELL('',(#467,#468,#469,#470,#471,#472,#473,#474,#475,#476,
#477,#478,#479,#480,#481,#482,#483,#484,#485,#486,#487,#488,#489,#490));
#492=DERIVED_UNIT_ELEMENT(#495,1.);
#493=DERIVED_UNIT_ELEMENT(#897,-3.);
#494=DIMENSIONAL_EXPONENTS(0.,1.,0.,0.,0.,0.,0.);
#495=(
CONVERSION_BASED_UNIT('gram',#497)
MASS_UNIT()
NAMED_UNIT(#494)
);
#496=(
MASS_UNIT()
NAMED_UNIT(*)
SI_UNIT(.KILO.,.GRAM.)
);
#497=MASS_MEASURE_WITH_UNIT(MASS_MEASURE(0.001),#496);
#498=DERIVED_UNIT((#492,#493));
#499=MEASURE_REPRESENTATION_ITEM('density measure',
POSITIVE_RATIO_MEASURE(1.),#498);
#500=PROPERTY_DEFINITION_REPRESENTATION(#505,#502);
#501=PROPERTY_DEFINITION_REPRESENTATION(#506,#503);
#502=REPRESENTATION('material name',(#504),#894);
#503=REPRESENTATION('density',(#499),#894);
#504=DESCRIPTIVE_REPRESENTATION_ITEM('Gen\X\E9rico','Gen\X\E9rico');
#505=PROPERTY_DEFINITION('material property','material name',#904);
#506=PROPERTY_DEFINITION('material property','density of part',#904);
#507=DATE_TIME_ROLE('creation_date');
#508=APPLIED_DATE_AND_TIME_ASSIGNMENT(#509,#507,(#904));
#509=DATE_AND_TIME(#510,#511);
#510=CALENDAR_DATE(2025,2,7);
#511=LOCAL_TIME(0,0,0.,#512);
#512=COORDINATED_UNIVERSAL_TIME_OFFSET(0,0,.BEHIND.);
#513=AXIS2_PLACEMENT_3D('',#750,#582,#583);
#514=AXIS2_PLACEMENT_3D('',#751,#584,#585);
#515=AXIS2_PLACEMENT_3D('',#753,#586,#587);
#516=AXIS2_PLACEMENT_3D('',#756,#589,#590);
#517=AXIS2_PLACEMENT_3D('',#757,#591,#592);
#518=AXIS2_PLACEMENT_3D('',#759,#593,#594);
#519=AXIS2_PLACEMENT_3D('',#762,#596,#597);
#520=AXIS2_PLACEMENT_3D('',#763,#598,#599);
#521=AXIS2_PLACEMENT_3D('',#765,#600,#601);
#522=AXIS2_PLACEMENT_3D('',#768,#603,#604);
#523=AXIS2_PLACEMENT_3D('',#769,#605,#606);
#524=AXIS2_PLACEMENT_3D('',#771,#607,#608);
#525=AXIS2_PLACEMENT_3D('',#774,#610,#611);
#526=AXIS2_PLACEMENT_3D('',#775,#612,#613);
#527=AXIS2_PLACEMENT_3D('',#778,#614,#615);
#528=AXIS2_PLACEMENT_3D('',#782,#617,#618);
#529=AXIS2_PLACEMENT_3D('',#784,#620,#621);
#530=AXIS2_PLACEMENT_3D('',#790,#625,#626);
#531=AXIS2_PLACEMENT_3D('',#794,#628,#629);
#532=AXIS2_PLACEMENT_3D('',#798,#631,#632);
#533=AXIS2_PLACEMENT_3D('',#801,#634,#635);
#534=AXIS2_PLACEMENT_3D('',#803,#636,#637);
#535=AXIS2_PLACEMENT_3D('',#805,#638,#639);
#536=AXIS2_PLACEMENT_3D('',#807,#640,#641);
#537=AXIS2_PLACEMENT_3D('',#809,#642,#643);
#538=AXIS2_PLACEMENT_3D('',#811,#644,#645);
#539=AXIS2_PLACEMENT_3D('',#812,#646,#647);
#540=AXIS2_PLACEMENT_3D('',#815,#649,#650);
#541=AXIS2_PLACEMENT_3D('',#816,#651,#652);
#542=AXIS2_PLACEMENT_3D('',#820,#655,#656);
#543=AXIS2_PLACEMENT_3D('',#823,#658,#659);
#544=AXIS2_PLACEMENT_3D('',#824,#660,#661);
#545=AXIS2_PLACEMENT_3D('',#828,#664,#665);
#546=AXIS2_PLACEMENT_3D('',#831,#667,#668);
#547=AXIS2_PLACEMENT_3D('',#832,#669,#670);
#548=AXIS2_PLACEMENT_3D('',#834,#671,#672);
#549=AXIS2_PLACEMENT_3D('',#837,#674,#675);
#550=AXIS2_PLACEMENT_3D('',#838,#676,#677);
#551=AXIS2_PLACEMENT_3D('',#840,#679,#680);
#552=AXIS2_PLACEMENT_3D('',#842,#681,#682);
#553=AXIS2_PLACEMENT_3D('',#845,#684,#685);
#554=AXIS2_PLACEMENT_3D('',#846,#686,#687);
#555=AXIS2_PLACEMENT_3D('',#848,#689,#690);
#556=AXIS2_PLACEMENT_3D('',#850,#691,#692);
#557=AXIS2_PLACEMENT_3D('',#853,#694,#695);
#558=AXIS2_PLACEMENT_3D('',#854,#696,#697);
#559=AXIS2_PLACEMENT_3D('',#856,#699,#700);
#560=AXIS2_PLACEMENT_3D('',#858,#701,#702);
#561=AXIS2_PLACEMENT_3D('',#861,#704,#705);
#562=AXIS2_PLACEMENT_3D('',#862,#706,#707);
#563=AXIS2_PLACEMENT_3D('',#864,#709,#710);
#564=AXIS2_PLACEMENT_3D('',#866,#711,#712);
#565=AXIS2_PLACEMENT_3D('',#869,#714,#715);
#566=AXIS2_PLACEMENT_3D('',#870,#716,#717);
#567=AXIS2_PLACEMENT_3D('',#872,#719,#720);
#568=AXIS2_PLACEMENT_3D('',#874,#722,#723);
#569=AXIS2_PLACEMENT_3D('view reference',#875,#724,#725);
#570=AXIS2_PLACEMENT_3D('view window',#876,#726,#727);
#571=AXIS2_PLACEMENT_3D('view reference',#878,#728,#729);
#572=AXIS2_PLACEMENT_3D('view window',#879,#730,#731);
#573=AXIS2_PLACEMENT_3D('view reference',#881,#732,#733);
#574=AXIS2_PLACEMENT_3D('view window',#882,#734,#735);
#575=AXIS2_PLACEMENT_3D('view reference',#884,#736,#737);
#576=AXIS2_PLACEMENT_3D('view window',#885,#738,#739);
#577=AXIS2_PLACEMENT_3D('',#887,#740,#741);
#578=AXIS2_PLACEMENT_3D('',#888,#742,#743);
#579=AXIS2_PLACEMENT_3D('',#889,#744,#745);
#580=AXIS2_PLACEMENT_3D('',#890,#746,#747);
#581=AXIS2_PLACEMENT_3D('',#891,#748,#749);
#582=DIRECTION('axis',(0.,0.,1.));
#583=DIRECTION('refdir',(1.,0.,0.));
#584=DIRECTION('center_axis',(0.,0.,1.));
#585=DIRECTION('ref_axis',(1.,0.,0.));
#586=DIRECTION('center_axis',(0.,0.,-1.));
#587=DIRECTION('ref_axis',(1.,0.,0.));
#588=DIRECTION('',(0.,0.,-1.));
#589=DIRECTION('center_axis',(0.,0.,1.));
#590=DIRECTION('ref_axis',(1.,0.,0.));
#591=DIRECTION('center_axis',(0.,0.,1.));
#592=DIRECTION('ref_axis',(1.,0.,0.));
#593=DIRECTION('center_axis',(0.,0.,-1.));
#594=DIRECTION('ref_axis',(1.,0.,0.));
#595=DIRECTION('',(0.,0.,-1.));
#596=DIRECTION('center_axis',(0.,0.,1.));
#597=DIRECTION('ref_axis',(1.,0.,0.));
#598=DIRECTION('center_axis',(0.,0.,1.));
#599=DIRECTION('ref_axis',(1.,0.,0.));
#600=DIRECTION('center_axis',(0.,0.,-1.));
#601=DIRECTION('ref_axis',(1.,0.,0.));
#602=DIRECTION('',(0.,0.,-1.));
#603=DIRECTION('center_axis',(0.,0.,1.));
#604=DIRECTION('ref_axis',(1.,0.,0.));
#605=DIRECTION('center_axis',(0.,0.,1.));
#606=DIRECTION('ref_axis',(1.,0.,0.));
#607=DIRECTION('center_axis',(0.,0.,-1.));
#608=DIRECTION('ref_axis',(1.,0.,0.));
#609=DIRECTION('',(0.,0.,-1.));
#610=DIRECTION('center_axis',(0.,0.,1.));
#611=DIRECTION('ref_axis',(1.,0.,0.));
#612=DIRECTION('center_axis',(0.,0.,-1.));
#613=DIRECTION('ref_axis',(-0.707106781186548,0.707106781186548,0.));
#614=DIRECTION('center_axis',(0.,0.,1.));
#615=DIRECTION('ref_axis',(-0.707106781186548,0.707106781186548,0.));
#616=DIRECTION('',(0.,0.,1.));
#617=DIRECTION('center_axis',(0.,0.,-1.));
#618=DIRECTION('ref_axis',(-0.707106781186548,0.707106781186548,0.));
#619=DIRECTION('',(0.,0.,-1.));
#620=DIRECTION('center_axis',(-1.,0.,0.));
#621=DIRECTION('ref_axis',(0.,1.,0.));
#622=DIRECTION('',(0.,1.,0.));
#623=DIRECTION('',(0.,0.,-1.));
#624=DIRECTION('',(0.,-1.,0.));
#625=DIRECTION('center_axis',(0.,0.,-1.));
#626=DIRECTION('ref_axis',(-1.,0.,0.));
#627=DIRECTION('',(1.,0.,0.));
#628=DIRECTION('center_axis',(0.,0.,1.));
#629=DIRECTION('ref_axis',(0.707106781186548,0.707106781186548,0.));
#630=DIRECTION('',(0.,-1.,0.));
#631=DIRECTION('center_axis',(0.,0.,1.));
#632=DIRECTION('ref_axis',(0.707106781186548,-0.707106781186548,0.));
#633=DIRECTION('',(-1.,0.,0.));
#634=DIRECTION('center_axis',(0.,0.,1.));
#635=DIRECTION('ref_axis',(-0.707106781186548,-0.707106781186548,0.));
#636=DIRECTION('center_axis',(0.,0.,1.));
#637=DIRECTION('ref_axis',(1.,0.,0.));
#638=DIRECTION('center_axis',(0.,0.,1.));
#639=DIRECTION('ref_axis',(1.,0.,0.));
#640=DIRECTION('center_axis',(0.,0.,1.));
#641=DIRECTION('ref_axis',(1.,0.,0.));
#642=DIRECTION('center_axis',(0.,0.,1.));
#643=DIRECTION('ref_axis',(1.,0.,0.));
#644=DIRECTION('center_axis',(0.,0.,1.));
#645=DIRECTION('ref_axis',(1.,0.,0.));
#646=DIRECTION('center_axis',(0.,0.,-1.));
#647=DIRECTION('ref_axis',(-0.707106781186548,-0.707106781186548,0.));
#648=DIRECTION('',(0.,0.,1.));
#649=DIRECTION('center_axis',(0.,0.,-1.));
#650=DIRECTION('ref_axis',(-0.707106781186548,-0.707106781186548,0.));
#651=DIRECTION('center_axis',(0.,-1.,0.));
#652=DIRECTION('ref_axis',(-1.,0.,0.));
#653=DIRECTION('',(0.,0.,-1.));
#654=DIRECTION('',(1.,0.,0.));
#655=DIRECTION('center_axis',(0.,0.,-1.));
#656=DIRECTION('ref_axis',(0.707106781186548,-0.707106781186548,0.));
#657=DIRECTION('',(0.,0.,1.));
#658=DIRECTION('center_axis',(0.,0.,-1.));
#659=DIRECTION('ref_axis',(0.707106781186548,-0.707106781186548,0.));
#660=DIRECTION('center_axis',(1.,0.,0.));
#661=DIRECTION('ref_axis',(0.,-1.,0.));
#662=DIRECTION('',(0.,0.,-1.));
#663=DIRECTION('',(0.,1.,0.));
#664=DIRECTION('center_axis',(0.,0.,-1.));
#665=DIRECTION('ref_axis',(0.707106781186548,0.707106781186548,0.));
#666=DIRECTION('',(0.,0.,1.));
#667=DIRECTION('center_axis',(0.,0.,-1.));
#668=DIRECTION('ref_axis',(0.707106781186548,0.707106781186548,0.));
#669=DIRECTION('center_axis',(0.,0.,1.));
#670=DIRECTION('ref_axis',(1.,0.,0.));
#671=DIRECTION('center_axis',(0.,0.,-1.));
#672=DIRECTION('ref_axis',(1.,0.,0.));
#673=DIRECTION('',(0.707106781186548,8.65956056235493E-17,-0.707106781186548));
#674=DIRECTION('center_axis',(0.,0.,1.));
#675=DIRECTION('ref_axis',(1.,0.,0.));
#676=DIRECTION('center_axis',(0.,0.,1.));
#677=DIRECTION('ref_axis',(1.,0.,0.));
#678=DIRECTION('',(0.,0.,-1.));
#679=DIRECTION('center_axis',(0.,0.,1.));
#680=DIRECTION('ref_axis',(1.,0.,0.));
#681=DIRECTION('center_axis',(0.,0.,-1.));
#682=DIRECTION('ref_axis',(1.,0.,0.));
#683=DIRECTION('',(0.707106781186548,8.65956056235493E-17,-0.707106781186548));
#684=DIRECTION('center_axis',(0.,0.,1.));
#685=DIRECTION('ref_axis',(1.,0.,0.));
#686=DIRECTION('center_axis',(0.,0.,1.));
#687=DIRECTION('ref_axis',(1.,0.,0.));
#688=DIRECTION('',(0.,0.,-1.));
#689=DIRECTION('center_axis',(0.,0.,1.));
#690=DIRECTION('ref_axis',(1.,0.,0.));
#691=DIRECTION('center_axis',(0.,0.,-1.));
#692=DIRECTION('ref_axis',(1.,0.,0.));
#693=DIRECTION('',(0.707106781186548,8.65956056235493E-17,-0.707106781186548));
#694=DIRECTION('center_axis',(0.,0.,1.));
#695=DIRECTION('ref_axis',(1.,0.,0.));
#696=DIRECTION('center_axis',(0.,0.,1.));
#697=DIRECTION('ref_axis',(1.,0.,0.));
#698=DIRECTION('',(0.,0.,-1.));
#699=DIRECTION('center_axis',(0.,0.,1.));
#700=DIRECTION('ref_axis',(1.,0.,0.));
#701=DIRECTION('center_axis',(0.,0.,-1.));
#702=DIRECTION('ref_axis',(1.,0.,0.));
#703=DIRECTION('',(0.707106781186548,8.65956056235493E-17,-0.707106781186548));
#704=DIRECTION('center_axis',(0.,0.,1.));
#705=DIRECTION('ref_axis',(1.,0.,0.));
#706=DIRECTION('center_axis',(0.,0.,1.));
#707=DIRECTION('ref_axis',(1.,0.,0.));
#708=DIRECTION('',(0.,0.,-1.));
#709=DIRECTION('center_axis',(0.,0.,1.));
#710=DIRECTION('ref_axis',(1.,0.,0.));
#711=DIRECTION('center_axis',(0.,0.,-1.));
#712=DIRECTION('ref_axis',(1.,0.,0.));
#713=DIRECTION('',(0.707106781186548,8.65956056235493E-17,-0.707106781186548));
#714=DIRECTION('center_axis',(0.,0.,1.));
#715=DIRECTION('ref_axis',(1.,0.,0.));
#716=DIRECTION('center_axis',(0.,0.,1.));
#717=DIRECTION('ref_axis',(1.,0.,0.));
#718=DIRECTION('',(0.,0.,-1.));
#719=DIRECTION('center_axis',(0.,1.,0.));
#720=DIRECTION('ref_axis',(1.,0.,0.));
#721=DIRECTION('',(-1.,0.,0.));
#722=DIRECTION('center_axis',(0.,0.,1.));
#723=DIRECTION('ref_axis',(1.,0.,0.));
#724=DIRECTION('center_axis',(-0.577350269189626,0.577350269189626,-0.577350269189626));
#725=DIRECTION('ref_axis',(-0.707106781186548,-0.707106781186548,0.));
#726=DIRECTION('center_axis',(0.,0.,1.));
#727=DIRECTION('ref_axis',(1.,0.,0.));
#728=DIRECTION('center_axis',(-2.22044604925031E-16,0.,-1.));
#729=DIRECTION('ref_axis',(-1.,0.,2.22044604925031E-16));
#730=DIRECTION('center_axis',(0.,0.,1.));
#731=DIRECTION('ref_axis',(1.,0.,0.));
#732=DIRECTION('center_axis',(0.,-1.,0.));
#733=DIRECTION('ref_axis',(-1.,0.,0.));
#734=DIRECTION('center_axis',(0.,0.,1.));
#735=DIRECTION('ref_axis',(1.,0.,0.));
#736=DIRECTION('center_axis',(-1.,0.,0.));
#737=DIRECTION('ref_axis',(0.,0.,1.));
#738=DIRECTION('center_axis',(0.,0.,1.));
#739=DIRECTION('ref_axis',(1.,0.,0.));
#740=DIRECTION('center_axis',(0.,0.,1.));
#741=DIRECTION('ref_axis',(1.,0.,0.));
#742=DIRECTION('center_axis',(0.,0.,1.));
#743=DIRECTION('ref_axis',(1.,0.,0.));
#744=DIRECTION('center_axis',(0.,0.,1.));
#745=DIRECTION('ref_axis',(1.,0.,0.));
#746=DIRECTION('center_axis',(0.,0.,1.));
#747=DIRECTION('ref_axis',(1.,0.,0.));
#748=DIRECTION('center_axis',(0.,0.,1.));
#749=DIRECTION('ref_axis',(1.,0.,0.));
#750=CARTESIAN_POINT('',(0.,0.,0.));
#751=CARTESIAN_POINT('Origin',(-80.,195.,-565.741990663589));
#752=CARTESIAN_POINT('',(-81.2295,195.,0.));
#753=CARTESIAN_POINT('Origin',(-80.,195.,0.));
#754=CARTESIAN_POINT('',(-81.2295,195.,-7.99999999999997));
#755=CARTESIAN_POINT('',(-81.2295,195.,-565.741990663589));
#756=CARTESIAN_POINT('Origin',(-80.,195.,-7.99999999999997));
#757=CARTESIAN_POINT('Origin',(80.,195.,-565.741990663589));
#758=CARTESIAN_POINT('',(78.7705,195.,0.));
#759=CARTESIAN_POINT('Origin',(80.,195.,0.));
#760=CARTESIAN_POINT('',(78.7705,195.,-7.99999999999997));
#761=CARTESIAN_POINT('',(78.7705,195.,-565.741990663589));
#762=CARTESIAN_POINT('Origin',(80.,195.,-7.99999999999997));
#763=CARTESIAN_POINT('Origin',(-40.,195.,-565.741990663589));
#764=CARTESIAN_POINT('',(-41.2295,195.,0.));
#765=CARTESIAN_POINT('Origin',(-40.,195.,0.));
#766=CARTESIAN_POINT('',(-41.2295,195.,-7.99999999999997));
#767=CARTESIAN_POINT('',(-41.2295,195.,-565.741990663589));
#768=CARTESIAN_POINT('Origin',(-40.,195.,-7.99999999999997));
#769=CARTESIAN_POINT('Origin',(40.,195.,-565.741990663589));
#770=CARTESIAN_POINT('',(38.7705,195.,0.));
#771=CARTESIAN_POINT('Origin',(40.,195.,0.));
#772=CARTESIAN_POINT('',(38.7705,195.,-7.99999999999997));
#773=CARTESIAN_POINT('',(38.7705,195.,-565.741990663589));
#774=CARTESIAN_POINT('Origin',(40.,195.,-7.99999999999997));
#775=CARTESIAN_POINT('Origin',(-198.,198.,0.));
#776=CARTESIAN_POINT('',(-198.,200.,-8.));
#777=CARTESIAN_POINT('',(-200.,198.,-8.));
#778=CARTESIAN_POINT('Origin',(-198.,198.,-8.));
#779=CARTESIAN_POINT('',(-200.,198.,0.));
#780=CARTESIAN_POINT('',(-200.,198.,0.));
#781=CARTESIAN_POINT('',(-198.,200.,0.));
#782=CARTESIAN_POINT('Origin',(-198.,198.,0.));
#783=CARTESIAN_POINT('',(-198.,200.,0.));
#784=CARTESIAN_POINT('Origin',(-200.,-200.,0.));
#785=CARTESIAN_POINT('',(-200.,-198.,-8.));
#786=CARTESIAN_POINT('',(-200.,200.,-8.));
#787=CARTESIAN_POINT('',(-200.,-198.,0.));
#788=CARTESIAN_POINT('',(-200.,-198.,0.));
#789=CARTESIAN_POINT('',(-200.,200.,0.));
#790=CARTESIAN_POINT('Origin',(0.,0.,-8.));
#791=CARTESIAN_POINT('',(198.,200.,-8.));
#792=CARTESIAN_POINT('',(200.,200.,-8.));
#793=CARTESIAN_POINT('',(200.,198.,-8.));
#794=CARTESIAN_POINT('Origin',(198.,198.,-8.));
#795=CARTESIAN_POINT('',(200.,-198.,-8.));
#796=CARTESIAN_POINT('',(200.,-200.,-8.));
#797=CARTESIAN_POINT('',(198.,-200.,-8.));
#798=CARTESIAN_POINT('Origin',(198.,-198.,-8.));
#799=CARTESIAN_POINT('',(-198.,-200.,-8.));
#800=CARTESIAN_POINT('',(-200.,-200.,-8.));
#801=CARTESIAN_POINT('Origin',(-198.,-198.,-8.));
#802=CARTESIAN_POINT('',(-197.1,195.,-8.));
#803=CARTESIAN_POINT('Origin',(-195.,195.,-8.));
#804=CARTESIAN_POINT('',(-197.1,-195.,-8.));
#805=CARTESIAN_POINT('Origin',(-195.,-195.,-8.));
#806=CARTESIAN_POINT('',(192.9,-195.,-8.));
#807=CARTESIAN_POINT('Origin',(195.,-195.,-8.));
#808=CARTESIAN_POINT('',(192.9,195.,-8.));
#809=CARTESIAN_POINT('Origin',(195.,195.,-8.));
#810=CARTESIAN_POINT('',(-2.1,195.,-8.));
#811=CARTESIAN_POINT('Origin',(0.,195.,-8.));
#812=CARTESIAN_POINT('Origin',(-198.,-198.,0.));
#813=CARTESIAN_POINT('',(-198.,-200.,0.));
#814=CARTESIAN_POINT('',(-198.,-200.,0.));
#815=CARTESIAN_POINT('Origin',(-198.,-198.,0.));
#816=CARTESIAN_POINT('Origin',(200.,-200.,0.));
#817=CARTESIAN_POINT('',(198.,-200.,0.));
#818=CARTESIAN_POINT('',(198.,-200.,0.));
#819=CARTESIAN_POINT('',(-200.,-200.,0.));
#820=CARTESIAN_POINT('Origin',(198.,-198.,0.));
#821=CARTESIAN_POINT('',(200.,-198.,0.));
#822=CARTESIAN_POINT('',(200.,-198.,0.));
#823=CARTESIAN_POINT('Origin',(198.,-198.,0.));
#824=CARTESIAN_POINT('Origin',(200.,200.,0.));
#825=CARTESIAN_POINT('',(200.,198.,0.));
#826=CARTESIAN_POINT('',(200.,198.,0.));
#827=CARTESIAN_POINT('',(200.,-200.,0.));
#828=CARTESIAN_POINT('Origin',(198.,198.,0.));
#829=CARTESIAN_POINT('',(198.,200.,0.));
#830=CARTESIAN_POINT('',(198.,200.,0.));
#831=CARTESIAN_POINT('Origin',(198.,198.,0.));
#832=CARTESIAN_POINT('Origin',(-195.,195.,-0.825));
#833=CARTESIAN_POINT('',(-198.75,195.,1.38777878078145E-16));
#834=CARTESIAN_POINT('Origin',(-195.,195.,0.));
#835=CARTESIAN_POINT('',(-197.1,195.,-1.65));
#836=CARTESIAN_POINT('',(-197.925,195.,-0.825));
#837=CARTESIAN_POINT('Origin',(-195.,195.,-1.65));
#838=CARTESIAN_POINT('Origin',(-195.,195.,-5.));
#839=CARTESIAN_POINT('',(-197.1,195.,-5.));
#840=CARTESIAN_POINT('Origin',(-195.,-195.,-0.825));
#841=CARTESIAN_POINT('',(-198.75,-195.,1.38777878078145E-16));
#842=CARTESIAN_POINT('Origin',(-195.,-195.,0.));
#843=CARTESIAN_POINT('',(-197.1,-195.,-1.65));
#844=CARTESIAN_POINT('',(-197.925,-195.,-0.825));
#845=CARTESIAN_POINT('Origin',(-195.,-195.,-1.65));
#846=CARTESIAN_POINT('Origin',(-195.,-195.,-5.));
#847=CARTESIAN_POINT('',(-197.1,-195.,-5.));
#848=CARTESIAN_POINT('Origin',(195.,-195.,-0.825));
#849=CARTESIAN_POINT('',(191.25,-195.,1.38777878078145E-16));
#850=CARTESIAN_POINT('Origin',(195.,-195.,0.));
#851=CARTESIAN_POINT('',(192.9,-195.,-1.65));
#852=CARTESIAN_POINT('',(192.075,-195.,-0.825));
#853=CARTESIAN_POINT('Origin',(195.,-195.,-1.65));
#854=CARTESIAN_POINT('Origin',(195.,-195.,-5.));
#855=CARTESIAN_POINT('',(192.9,-195.,-5.));
#856=CARTESIAN_POINT('Origin',(195.,195.,-0.825));
#857=CARTESIAN_POINT('',(191.25,195.,1.38777878078145E-16));
#858=CARTESIAN_POINT('Origin',(195.,195.,0.));
#859=CARTESIAN_POINT('',(192.9,195.,-1.65));
#860=CARTESIAN_POINT('',(192.075,195.,-0.825));
#861=CARTESIAN_POINT('Origin',(195.,195.,-1.65));
#862=CARTESIAN_POINT('Origin',(195.,195.,-5.));
#863=CARTESIAN_POINT('',(192.9,195.,-5.));
#864=CARTESIAN_POINT('Origin',(0.,195.,-0.825));
#865=CARTESIAN_POINT('',(-3.75,195.,2.77555756156289E-16));
#866=CARTESIAN_POINT('Origin',(0.,195.,0.));
#867=CARTESIAN_POINT('',(-2.1,195.,-1.65));
#868=CARTESIAN_POINT('',(-2.925,195.,-0.825));
#869=CARTESIAN_POINT('Origin',(0.,195.,-1.65));
#870=CARTESIAN_POINT('Origin',(0.,195.,-5.));
#871=CARTESIAN_POINT('',(-2.1,195.,-5.));
#872=CARTESIAN_POINT('Origin',(-200.,200.,0.));
#873=CARTESIAN_POINT('',(200.,200.,0.));
#874=CARTESIAN_POINT('Origin',(0.,0.,0.));
#875=CARTESIAN_POINT('Origin',(9.80776221726431,-9.80776221726431,9.80776221726431));
#876=CARTESIAN_POINT('Origin',(-13.9055118110236,-10.,16.9875424688562));
#877=CARTESIAN_POINT('',(0.,0.,0.));
#878=CARTESIAN_POINT('Origin',(2.61331282407732E-14,0.,117.693146607172));
#879=CARTESIAN_POINT('Origin',(-13.9055118110236,-10.,117.693146607172));
#880=CARTESIAN_POINT('',(0.,0.,0.));
#881=CARTESIAN_POINT('Origin',(0.,117.693146607172,0.));
#882=CARTESIAN_POINT('Origin',(-13.9055118110236,-10.,117.693146607172));
#883=CARTESIAN_POINT('',(0.,0.,0.));
#884=CARTESIAN_POINT('Origin',(117.693146607172,0.,0.));
#885=CARTESIAN_POINT('Origin',(-13.9055118110236,-10.,117.693146607172));
#886=CARTESIAN_POINT('',(0.,0.,0.));
#887=CARTESIAN_POINT('Origin',(0.,0.,0.));
#888=CARTESIAN_POINT('Origin',(0.,0.,0.));
#889=CARTESIAN_POINT('Origin',(0.,0.,0.));
#890=CARTESIAN_POINT('Origin',(0.,0.,0.));
#891=CARTESIAN_POINT('Origin',(0.,0.,0.));
#892=UNCERTAINTY_MEASURE_WITH_UNIT(LENGTH_MEASURE(0.01),#896,
'DISTANCE_ACCURACY_VALUE',
'Maximum model space distance between geometric entities at asserted c
onnectivities');
#893=UNCERTAINTY_MEASURE_WITH_UNIT(LENGTH_MEASURE(0.01),#896,
'DISTANCE_ACCURACY_VALUE',
'Maximum model space distance between geometric entities at asserted c
onnectivities');
#894=(
GEOMETRIC_REPRESENTATION_CONTEXT(3)
GLOBAL_UNCERTAINTY_ASSIGNED_CONTEXT((#892))
GLOBAL_UNIT_ASSIGNED_CONTEXT((#896,#898,#899))
REPRESENTATION_CONTEXT('','3D')
);
#895=(
GEOMETRIC_REPRESENTATION_CONTEXT(3)
GLOBAL_UNCERTAINTY_ASSIGNED_CONTEXT((#893))
GLOBAL_UNIT_ASSIGNED_CONTEXT((#896,#898,#899))
REPRESENTATION_CONTEXT('','3D')
);
#896=(
LENGTH_UNIT()
NAMED_UNIT(*)
SI_UNIT(.MILLI.,.METRE.)
);
#897=(
LENGTH_UNIT()
NAMED_UNIT(*)
SI_UNIT(.CENTI.,.METRE.)
);
#898=(
NAMED_UNIT(*)
PLANE_ANGLE_UNIT()
SI_UNIT($,.RADIAN.)
);
#899=(
NAMED_UNIT(*)
SI_UNIT($,.STERADIAN.)
SOLID_ANGLE_UNIT()
);
#900=SHAPE_DEFINITION_REPRESENTATION(#901,#902);
#901=PRODUCT_DEFINITION_SHAPE('',$,#904);
#902=SHAPE_REPRESENTATION('',(#513,#45),#894);
#903=PRODUCT_DEFINITION_CONTEXT('part definition',#908,'design');
#904=PRODUCT_DEFINITION('Cama-fundicion-configurable',
'Cama-fundicion-configurable',#905,#903);
#905=PRODUCT_DEFINITION_FORMATION('',$,#910);
#906=PRODUCT_RELATED_PRODUCT_CATEGORY('Cama-fundicion-configurable',
'Cama-fundicion-configurable',(#910));
#907=APPLICATION_PROTOCOL_DEFINITION('international standard',
'ap242_managed_model_based_3d_engineering',2011,#908);
#908=APPLICATION_CONTEXT('Managed model based 3d engineering');
#909=PRODUCT_CONTEXT('part definition',#908,'mechanical');
#910=PRODUCT('Cama-fundicion-configurable',
'Cama-fundicion-configurable',$,(#909));
#911=PRESENTATION_STYLE_ASSIGNMENT((#914));
#912=PRESENTATION_STYLE_ASSIGNMENT((#915));
#913=PRESENTATION_STYLE_ASSIGNMENT((NULL_STYLE(.NULL.)));
#914=SURFACE_STYLE_USAGE(.BOTH.,#920);
#915=SURFACE_STYLE_USAGE(.BOTH.,#921);
#916=SURFACE_STYLE_RENDERING_WITH_PROPERTIES($,#928,(#918));
#917=SURFACE_STYLE_RENDERING_WITH_PROPERTIES($,#929,(#919));
#918=SURFACE_STYLE_TRANSPARENT(0.);
#919=SURFACE_STYLE_TRANSPARENT(0.);
#920=SURFACE_SIDE_STYLE('',(#922,#916));
#921=SURFACE_SIDE_STYLE('',(#923,#917));
#922=SURFACE_STYLE_FILL_AREA(#924);
#923=SURFACE_STYLE_FILL_AREA(#925);
#924=FILL_AREA_STYLE('',(#926));
#925=FILL_AREA_STYLE('',(#927));
#926=FILL_AREA_STYLE_COLOUR('',#928);
#927=FILL_AREA_STYLE_COLOUR('',#929);
#928=COLOUR_RGB('',0.749019607843137,0.749019607843137,0.749019607843137);
#929=COLOUR_RGB('',0.956862745098039,0.956862745098039,0.956862745098039);
ENDSEC;
END-ISO-10303-21;
